<svg height="24" version="1.1" viewBox="0 0 24 24" width="24" xmlns="http://www.w3.org/2000/svg"><g fill="none" fill-rule="evenodd" stroke="none" stroke-width="1"><g transform="translate(-828.000000, -335.000000)"><g transform="translate(215.000000, 119.000000)"/><path d="M833 338L829.6 338C829.3 338 829 338.3 829 338.6L829 356.4C829 356.7 829.3 357 829.6 357L849.4 357C849.7 357 850 356.7 850 356.4L850 338.6C850 338.3 849.7 338 849.4 338L846 338 846 339.2C846 340.2 845.2 341 844.2 341L843.8 341C842.8 341 842 340.2 842 339.2L842 338 837 338 837 339.2C837 340.2 836.2 341 835.2 341L834.8 341C833.8 341 833 340.2 833 339.2L833 338ZM830 353L830 355.6C830 355.8 830.2 356 830.4 356L833 356 833 353 830 353 830 353ZM834 353L834 356 837 356 837 353 834 353 834 353ZM838 353L838 356 841 356 841 353 838 353 838 353ZM842 353L842 356 845 356 845 353 842 353 842 353ZM846 353L846 356 848.6 356C848.8 356 849 355.8 849 355.6L849 353 846 353 846 353ZM830 349L830 352 833 352 833 349 830 349 830 349ZM834 349L834 352 837 352 837 349 834 349 834 349ZM842 349L842 352 845 352 845 349 842 349 842 349ZM846 349L846 352 849 352 849 349 846 349 846 349ZM830 345L830 348 833 348 833 345 830 345 830 345ZM834 345L834 348 837 348 837 345 834 345 834 345ZM838 345L838 348 841 348 841 345 838 345 838 345ZM842 345L842 348 845 348 845 345 842 345 842 345ZM846 345L846 348 849 348 849 345 846 345 846 345ZM834.8 336C834.3 336 834 336.3 834 336.8L834 339.2C834 339.7 834.3 340 834.8 340L835.2 340C835.7 340 836 339.7 836 339.2L836 336.8C836 336.3 835.7 336 835.2 336L834.8 336 834.8 336ZM844 336C843.4 336 843 336.4 843 337L843 339C843 339.6 843.4 340 844 340 844.6 340 845 339.6 845 339L845 337C845 336.4 844.6 336 844 336L844 336Z" fill="#fff"/></g></g></svg>
