<svg enable-background="new 0 0 32 32" height="32" version="1.1" viewBox="0 0 32 32" width="32" xml:space="preserve" xmlns="http://www.w3.org/2000/svg" xmlns:svg="http://www.w3.org/2000/svg"><rect fill="none" height="32" width="32"/><path d="M8 20c0-2 0-10 0-10s0-0.4 0.2-1C6.2 9 4 9 4 9s-2 0-2 2v7c0 2 2 2 2 2v10h6v-8C10 22 8 22 8 20zM8 8c0.5 0 1-0.1 1.4-0.4 0.1 0 0.1-0.1 0.2-0.1C10.4 7 11 6.1 11 5c0-1.7-1.3-3-3-3S5 3.3 5 5 6.3 8 8 8zM28 9h-4.2C24 9.6 24 10 24 10s0 8 0 10 -2 2-2 2v8h6V20c0 0 2 0 2-2s0-7 0-7S30 9 28 9zM22.4 7.5c0.1 0 0.1 0.1 0.2 0.1C23 7.9 23.5 8 24 8c1.7 0 3-1.3 3-3s-1.3-3-3-3 -3 1.3-3 3C21 6.1 21.6 7 22.4 7.5zM16 8c1.7 0 3-1.3 3-3s-1.3-3-3-3 -3 1.3-3 3S14.3 8 16 8zM22 11c0 0 0-2-2-2 -0.5 0-8 0-8 0s-2 0-2 2v7c0 2 2 2 2 2v10h8V20c0 0 2 0 2-2S22 11 22 11z" fill="#fff"/></svg>