
<svg height="24" version="1.1" viewBox="0 0 24 24" width="24" xmlns="http://www.w3.org/2000/svg"><g fill="none" fill-rule="evenodd" stroke="none" stroke-width="1"><g transform="translate(-471.000000, -443.000000)"><g transform="translate(215.000000, 119.000000)"/><path d="M479.5 466C479.5 466 487 456.1 487 451.8 487 447.5 484.5 444 479.5 444 474.5 444 472 447.5 472 451.8 472 456.1 479.5 466 479.5 466L479.5 466ZM479.5 454.5C481.7 454.5 483.5 452.7 483.5 450.5 483.5 448.3 481.7 446.5 479.5 446.5 477.3 446.5 475.5 448.3 475.5 450.5 475.5 452.7 477.3 454.5 479.5 454.5L479.5 454.5Z" fill="#fff"/></g></g></svg>
