<svg enable-background="new 0 0 48 48" height="48" version="1.1" viewBox="0 0 48 48" width="48" xml:space="preserve" xmlns="http://www.w3.org/2000/svg"><path d="M24 0c-13.3 0-24 10.7-24 24s10.7 24 24 24 24-10.7 24-24S37.3 0 24 0zM24.1 44C13 44 4 35 4 24S13 3.9 24.1 3.9c11.1 0 20 9 20 20S35.1 44 24.1 44zM35.3 14.6H12.8c-1.1 0-2 0.9-2 2v14.8c0 1.1 0.9 2 2 2h22.4c1.1 0 2-0.9 2-2V16.6C37.3 15.5 36.4 14.6 35.3 14.6zM33.4 28.2c0 1.1-0.9 2-2 2H16.1c-1.1 0-2-0.9-2-2v-8.1c0 0 0-0.7 1.3 0 0 0 0 0 0 0 2 1.2 4.4 2.3 7.7 3.7 0.2 0.1 0.7 0.2 1.4 0 3.3-1 6.1-2.3 8.2-3.5l0 0c0 0 0.8-0.5 0.8 0V28.2z" fill="#fff"/></svg>
